Coordinates
version=1
nRows=17
nColumns=40
inDegrees=yes

Units are S.I. units (second, meters, Newtons, ...)
If the header above contains a line with 'inDegrees', this indicates whether rotational values are in degrees (yes) or radians (no).

endheader
time	pelvis_tilt	pelvis_list	pelvis_rotation	pelvis_tx	pelvis_ty	pelvis_tz	hip_flexion_r	hip_adduction_r	hip_rotation_r	knee_angle_r	knee_angle_r_beta	ankle_angle_r	subtalar_angle_r	mtp_angle_r	hip_flexion_l	hip_adduction_l	hip_rotation_l	knee_angle_l	knee_angle_l_beta	ankle_angle_l	subtalar_angle_l	mtp_angle_l	lumbar_extension	lumbar_bending	lumbar_rotation	arm_flex_r	arm_add_r	arm_rot_r	elbow_flex_r	pro_sup_r	wrist_flex_r	wrist_dev_r	arm_flex_l	arm_add_l	arm_rot_l	elbow_flex_l	pro_sup_l	wrist_flex_l	wrist_dev_l
      7.32500000	     -5.92105468	    -29.62672945	     89.99209135	      0.47147718	      0.82359533	     -0.66026091	     61.10676910	     29.89621661	     39.96447828	     40.72882768	      0.71085214	    -21.24034215	      0.00000000	      0.00000000	     11.74789254	     -1.06638841	    -39.98414075	      0.02202530	      0.00038441	     18.99718579	      0.00000000	      0.00000000	    -55.50057762	    -89.96579170	     -3.97844521	     71.74053613	      7.60436599	     12.60113445	     11.29507754	     29.47748801	      0.00000000	      0.00000000	     69.15324256	    -16.53998997	     11.31697094	     13.46993568	     34.45329491	      0.00000000	      0.00000000
      7.33000000	     -5.98018492	    -29.70361587	     89.99206796	      0.47151168	      0.82377063	     -0.66057750	     61.20092359	     29.88488708	     39.96467391	     40.88774558	      0.71362578	    -20.92796287	      0.00000000	      0.00000000	     11.82350124	     -0.99058474	    -39.98415768	      0.02197745	      0.00038358	     18.89832181	      0.00000000	      0.00000000	    -55.38606117	    -89.96574244	     -3.93675163	     71.11389370	      7.41259233	     12.53023797	     12.35022969	     29.76301110	      0.00000000	      0.00000000	     68.59712354	    -16.86070586	     11.18477296	     14.42331933	     34.64263864	      0.00000000	      0.00000000
      7.33500000	     -6.03644521	    -29.73972305	     89.99205571	      0.47156819	      0.82402067	     -0.66087770	     61.25278869	     29.87206903	     39.96484623	     41.01570634	      0.71585912	    -20.74593326	      0.00000000	      0.00000000	     11.85499092	     -0.92443259	    -39.98417691	      0.02194999	      0.00038310	     18.79088660	      0.00000000	      0.00000000	    -55.28830777	    -89.96568779	     -3.87131884	     70.57360818	      7.22635729	     12.46144507	     13.26336751	     30.02559470	      0.00000000	      0.00000000	     68.12304128	    -17.12660027	     11.10382635	     15.24902671	     34.81811967	      0.00000000	      0.00000000
      7.34000000	     -6.04246770	    -29.20403205	     89.99207723	      0.47183094	      0.82525061	     -0.66123509	     60.64528221	     29.85940174	     39.96486769	     40.88598247	      0.71359501	    -21.42174060	      0.00000000	      0.00000000	     11.29322389	     -0.91828226	    -39.98419149	      0.02191063	      0.00038241	     18.47647970	      0.00000000	      0.00000000	    -55.49837268	    -89.96554679	     -3.17722716	     71.26853707	      7.11758968	     12.36324348	     11.93843477	     30.05360962	      0.00000000	      0.00000000	     68.68406298	    -16.58309582	     12.26296515	     14.21014728	     35.10081002	      0.00000000	      0.00000000
      7.34500000	     -6.11752574	    -29.29045290	     89.99205175	      0.47176866	      0.82535876	     -0.66157186	     60.74920476	     29.83730830	     39.96504859	     41.06676898	      0.71675033	    -21.08560278	      0.00000000	      0.00000000	     11.36811467	     -0.83376817	    -39.98420355	      0.02187234	      0.00038174	     18.38632825	      0.00000000	      0.00000000	    -55.37009060	    -89.96548186	     -3.14048163	     70.64188623	      6.95657355	     12.29684854	     12.94148203	     30.32443302	      0.00000000	      0.00000000	     68.13799889	    -16.89838677	     12.12039920	     15.12106228	     35.27691103	      0.00000000	      0.00000000
      7.35000000	     -6.15873754	    -28.96347569	     89.99205885	      0.47190691	      0.82620007	     -0.66185529	     60.38596099	     29.81498867	     39.96510431	     41.03218459	      0.71614672	    -21.51498241	      0.00000000	      0.00000000	     11.02671134	     -0.79828336	    -39.98420249	      0.02186598	      0.00038163	     18.11972431	      0.00000000	      0.00000000	    -55.39870149	    -89.96539477	     -2.61478814	     70.98036739	      6.86178437	     12.20384316	     12.24984881	     30.43206008	      0.00000000	      0.00000000	     68.29310142	    -16.65412075	     12.78015998	     14.78957881	     35.59176179	      0.00000000	      0.00000000
      7.35500000	     -6.23958834	    -28.98816579	     89.99203750	      0.47182212	      0.82639802	     -0.66212805	     60.42834394	     29.78191232	     39.96524562	     41.18492685	      0.71881258	    -21.31401848	      0.00000000	      0.00000000	     11.05083486	     -0.71026450	    -39.98419657	      0.02186716	      0.00038165	     18.03526175	      0.00000000	      0.00000000	    -55.27459439	    -89.96526991	     -2.52396623	     70.48562123	      6.70142502	     12.14222914	     13.04921908	     30.65563285	      0.00000000	      0.00000000	     67.81327434	    -16.90519505	     12.66990794	     15.50640078	     35.74488390	      0.00000000	      0.00000000
      7.36000000	     -6.31873496	    -28.84900009	     89.99202575	      0.47178802	      0.82687501	     -0.66246333	     60.26922685	     29.73617674	     39.96537582	     41.22008476	      0.71942620	    -21.66930703	      0.00000000	      0.00000000	     10.89347816	     -0.62878509	    -39.98419403	      0.02184891	      0.00038134	     17.82004896	      0.00000000	      0.00000000	    -55.25483027	    -89.96515530	     -2.17546637	     70.38546531	      6.54685712	     12.06410287	     13.05148532	     30.81264941	      0.00000000	      0.00000000	     67.67326287	    -16.82765734	     13.00018846	     15.70211214	     35.97963690	      0.00000000	      0.00000000
      7.36500000	     -6.43296218	    -28.75555181	     89.99201477	      0.47168857	      0.82721355	     -0.66268114	     60.18180342	     29.66814227	     39.96555601	     41.33847133	      0.72149243	    -21.68954414	      0.00000000	      0.00000000	     10.79250253	     -0.50857580	    -39.98418931	      0.02183363	      0.00038107	     17.70729476	      0.00000000	      0.00000000	    -55.24138509	    -89.96511453	     -1.88435161	     70.15465704	      6.34768442	     11.98703920	     13.34660337	     30.99182765	      0.00000000	      0.00000000	     67.42709671	    -16.75049034	     13.17462776	     16.19272501	     36.19120604	      0.00000000	      0.00000000
      7.37000000	     -6.59144733	    -28.77693603	     89.99199656	      0.47143998	      0.82734163	     -0.66286965	     60.20060151	     29.54779123	     39.96579698	     41.48114464	      0.72398255	    -21.39872785	      0.00000000	      0.00000000	     10.81583688	     -0.33433668	    -39.98418431	      0.02180049	      0.00038049	     17.64390325	      0.00000000	      0.00000000	    -55.10480844	    -89.96502629	     -1.82092838	     69.59476905	      6.24003953	     11.93683739	     13.97987408	     31.18082785	      0.00000000	      0.00000000	     66.98679857	    -17.00990081	     13.07910849	     16.75777869	     36.31242977	      0.00000000	      0.00000000
      7.37500000	     -6.74478676	    -28.58367355	     89.99199421	      0.47131955	      0.82775719	     -0.66319252	     59.99257460	     29.43996319	     39.96588583	     41.58727426	      0.72583486	    -21.56063293	      0.00000000	      0.00000000	     10.60433243	     -0.17406658	    -39.98416258	      0.02180824	      0.00038063	     17.43906516	      0.00000000	      0.00000000	    -54.49932291	    -89.96507898	     -0.85490611	     70.65319950	      6.60758630	     11.80106792	     11.72767860	     31.26572744	      0.00000000	      0.00000000	     67.01518754	    -16.86750514	     13.80298404	     16.38347830	     37.35016634	      0.00000000	      0.00000000
      7.38000000	     -6.95737641	    -28.63387522	     89.99198374	      0.47097193	      0.82776049	     -0.66337003	     60.04056914	     29.26701470	     39.96613000	     41.75047702	      0.72868329	    -21.24713856	      0.00000000	      0.00000000	     10.65814953	      0.06352612	    -39.98415445	      0.02177725	      0.00038008	     17.37471744	      0.00000000	      0.00000000	    -54.34906036	    -89.96497489	     -0.82352161	     69.89737885	      6.44014747	     11.73263944	     12.76456791	     31.51554995	      0.00000000	      0.00000000	     66.37203577	    -17.15488851	     13.66657955	     17.13895658	     37.49212018	      0.00000000	      0.00000000
      7.38500000	     -7.15859558	    -28.40257268	     89.99199344	      0.47079634	      0.82816361	     -0.66368517	     59.78899994	     29.10171773	     39.96624964	     41.83546497	      0.73016661	    -21.46724441	      0.00000000	      0.00000000	     10.40652735	      0.27521250	    -39.98413796	      0.02176099	      0.00037980	     17.18178194	      0.00000000	      0.00000000	    -54.29882332	    -89.96499452	     -0.34018976	     69.66635611	      6.22804048	     11.62196206	     12.87374873	     31.71650627	      0.00000000	      0.00000000	     66.28673609	    -17.07491839	     14.47114970	     17.05990986	     37.84301325	      0.00000000	      0.00000000
      7.39000000	     -7.40127074	    -28.48487432	     89.99198265	      0.47038426	      0.82811160	     -0.66386386	     59.87212302	     28.89114319	     39.96649203	     42.00883883	      0.73319255	    -21.16114399	      0.00000000	      0.00000000	     10.49122163	      0.54828191	    -39.98412470	      0.02172312	      0.00037914	     17.14741777	      0.00000000	      0.00000000	    -54.15663244	    -89.96498855	     -0.32063521	     68.91462524	      6.08109600	     11.55352443	     13.87736491	     31.97083162	      0.00000000	      0.00000000	     65.63526136	    -17.38372350	     14.31764415	     17.83841226	     37.98555124	      0.00000000	      0.00000000
      7.39500000	     -7.70423722	    -28.54878304	     89.99197085	      0.46987028	      0.82800362	     -0.66407017	     59.92135304	     28.60482088	     39.96679246	     42.14655164	      0.73559609	    -20.82846716	      0.00000000	      0.00000000	     10.55768370	      0.89091784	    -39.98411690	      0.02164756	      0.00037782	     17.09944132	      0.00000000	      0.00000000	    -54.00361487	    -89.96503369	     -0.29087533	     68.17151289	      5.95583070	     11.49034490	     14.78152070	     32.21191195	      0.00000000	      0.00000000	     64.94432525	    -17.61394943	     14.18043888	     18.53722456	     38.11205615	      0.00000000	      0.00000000
      7.40000000	     -7.96243937	    -28.60828992	     89.99196768	      0.46948086	      0.82788721	     -0.66431618	     59.98374033	     28.38361825	     39.96697721	     42.32122848	      0.73864478	    -20.59071247	      0.00000000	      0.00000000	     10.61238663	      1.17772131	    -39.98410100	      0.02160867	      0.00037714	     17.05074704	      0.00000000	      0.00000000	    -53.88541238	    -89.96507022	     -0.23858217	     67.47267588	      5.82068376	     11.42516240	     15.63178902	     32.44924284	      0.00000000	      0.00000000	     64.33344502	    -17.87033819	     14.06361906	     19.20887464	     38.23779376	      0.00000000	      0.00000000
      7.40500000	     -8.16182802	    -28.39084945	     89.99198120	      0.46937921	      0.82831886	     -0.66456585	     59.75282179	     28.22911819	     39.96692900	     42.34788449	      0.73911002	    -21.50724826	      0.00000000	      0.00000000	     10.38228805	      1.38887742	    -39.98407743	      0.02164233	      0.00037773	     16.82317952	      0.00000000	      0.00000000	    -53.93376631	    -89.96502559	      0.07755109	     67.38741248	      5.64754015	     11.34123948	     15.51641566	     32.59736392	      0.00000000	      0.00000000	     64.32522732	    -17.78553363	     14.82911121	     19.06655908	     38.41427999	      0.00000000	      0.00000000
